<svg width="512" height="401" viewBox="0 0 512 401" fill="none" xmlns="http://www.w3.org/2000/svg">
<g clip-path="url(#clip0_1658_14)">
<path d="M0 129C0 57.7553 57.7553 0 129 0H376C451.111 0 512 60.8893 512 136V269C512 341.902 452.902 401 380 401H134C59.9938 401 0 341.006 0 267V129Z" fill="#40AE72"/>
<path d="M0 129C0 57.7553 57.7553 0 129 0H376C451.111 0 512 60.8893 512 136V269C512 341.902 452.902 401 380 401H134C59.9938 401 0 341.006 0 267V129Z" fill="#0D1830"/>
<path d="M217.329 113.398H249.568V286.998H217.329V113.398ZM127.553 286.998H95.3125V113.398H127.553V286.998ZM219.809 212.598H124.825V185.07H219.809V212.598Z" fill="#FAFAFA"/>
<path d="M281.203 286.998V113.398H352.627C368.003 113.398 381.147 115.878 392.059 120.838C403.137 125.798 411.651 132.907 417.603 142.166C423.555 151.425 426.531 162.419 426.531 175.15C426.531 187.881 423.555 198.875 417.603 208.134C411.651 217.227 403.137 224.254 392.059 229.214C381.147 234.009 368.003 236.406 352.627 236.406H299.059L313.443 221.774V286.998H281.203ZM394.787 286.998L350.891 224.006H385.363L429.507 286.998H394.787ZM313.443 225.246L299.059 209.87H351.139C365.358 209.87 376.022 206.811 383.131 200.694C390.406 194.577 394.043 186.062 394.043 175.15C394.043 164.073 390.406 155.558 383.131 149.606C376.022 143.654 365.358 140.678 351.139 140.678H299.059L313.443 124.806V225.246Z" fill="#FAFAFA"/>
</g>
<defs>
<clipPath id="clip0_1658_14">
<rect width="512" height="401" fill="white"/>
</clipPath>
</defs>
</svg>
